<svg aria-hidden="true" width="0" height="0" style="position:absolute"><symbol viewBox="0 0 512 512" id="4b537e46a8af3eefd96a1ba064ac6741" xmlns="http://www.w3.org/2000/svg"><path d="M492 352c11 0 20-9 20-20V203c0-44-36-80-80-80h-42V80c0-44-36-80-80-80H80C36 0 0 36 0 80v229c0 44 36 80 80 80h42v43c0 44 36 80 80 80h230c44 0 80-36 80-80a20 20 0 00-40 0c0 22-18 40-40 40H202c-22 0-40-18-40-40V203c0-22 18-40 40-40h230c22 0 40 18 40 40v129c0 11 9 20 20 20zM40 80c0-22 18-40 40-40h29l-69 68V80zm82 269H83l39-38v38zm0-146v51l-76 76c-3-6-6-13-6-21v-31l83-82-1 7zm-82 19v-57L165 40h57L40 222zm214-99h-59l79-78 3-5h33c7 0 15 2 21 6l-77 76v1zm96 0h-40l40-40v40z"/></symbol></svg>