<svg aria-hidden="true" width="0" height="0" style="position:absolute"><symbol viewBox="0 0 478 478" id="0fe78ce18ed84ea73a3e99136fadc3f5" xmlns="http://www.w3.org/2000/svg"><path d="M341 85H51c-28 0-51 23-51 52v290c0 28 23 51 51 51h290c29 0 52-23 52-51V137c0-29-23-52-52-52zm17 342c0 9-7 17-17 17H51c-9 0-17-8-17-17V137c0-10 8-18 17-18h290c10 0 17 8 17 18v290z"/><path d="M427 0H119C91 0 68 23 68 51a17 17 0 1034 0c0-9 8-17 17-17h308c9 0 17 8 17 17v307c0 10-8 17-17 17s-17 8-17 18 7 17 17 17c28 0 51-23 51-52V51c0-28-23-51-51-51z"/></symbol></svg>