<svg aria-hidden="true" width="0" height="0" style="position:absolute"><symbol viewBox="0 0 478 478" id="966d402000e889e90272725e5a4f0058" xmlns="http://www.w3.org/2000/svg"><path d="M410 154h-86a17 17 0 100 34h86c9 0 17 7 17 17v222c0 9-8 17-17 17H68c-9 0-17-8-17-17V205c0-10 8-17 17-17h86a17 17 0 100-34H68c-28 0-51 23-51 51v222c0 28 23 51 51 51h342c28 0 51-23 51-51V205c0-28-23-51-51-51z"/><path d="M336 244c-7-6-17-6-24 0l-56 56V17a17 17 0 10-34 0v283l-56-56a17 17 0 00-24 24l85 85a17 17 0 0024 0l85-85c7-7 7-18 0-24z"/></symbol></svg>