<svg aria-hidden="true" width="0" height="0" style="position:absolute"><symbol viewBox="0 -84 512.001 512" id="b7bdf9a27c285cd14da719efbe7f0236" xmlns="http://www.w3.org/2000/svg"><path d="M306.594 212.582c-2.418 0-4.875-.48-7.239-1.492-5.117-2.192-20.695-8.867-43.355-8.867s-38.238 6.675-43.355 8.867c-9.34 4.004-20.157-.32-24.16-9.664-4-9.34.327-20.156 9.667-24.16 6.832-2.926 27.633-11.84 57.848-11.84s51.016 8.914 57.848 11.84c9.34 4.004 13.668 14.82 9.664 24.16-2.989 6.976-9.782 11.156-16.918 11.156zm0 0" fill="#8eafe2"/><path d="M323.516 201.426c4-9.34-.329-20.156-9.664-24.16-3.993-1.711-12.75-5.457-25.356-8.282a62.177 62.177 0 00-20.605 29.575 61.807 61.807 0 00-1.184 4.183c16.836 1.594 28.383 6.524 32.648 8.348a18.355 18.355 0 007.239 1.492c7.136 0 13.93-4.18 16.922-11.156zm0 0M188.484 201.426c-4-9.34.328-20.156 9.668-24.16 3.989-1.711 12.746-5.457 25.356-8.282a62.196 62.196 0 0120.601 29.575c.45 1.386.836 2.78 1.188 4.183-16.84 1.594-28.387 6.524-32.652 8.348a18.355 18.355 0 01-7.239 1.492c-7.136 0-13.93-4.18-16.922-11.156zm0 0" fill="#6a96d7"/><path d="M18.398 229.523C8.238 229.523 0 221.285 0 211.121V58.551C0 26.266 26.266 0 58.55 0c10.16 0 18.4 8.238 18.4 18.398s-8.24 18.399-18.4 18.399c-11.991 0-21.75 9.758-21.75 21.754v152.57c0 10.164-8.237 18.402-18.402 18.402zm0 0" fill="#8eafe2"/><path d="M58.55 0C26.267 0 0 26.266 0 58.55v30.24h36.8V58.55c0-11.991 9.759-21.75 21.75-21.75 10.16 0 18.4-8.237 18.4-18.398C76.95 8.238 68.71 0 58.55 0zm0 0" fill="#6a96d7"/><path d="M493.602 229.523c-10.164 0-18.399-8.238-18.399-18.402V58.551c0-11.992-9.758-21.75-21.754-21.75-10.16 0-18.398-8.239-18.398-18.399C435.05 8.238 443.289 0 453.449 0 485.734 0 512 26.266 512 58.55v152.571c0 10.164-8.238 18.402-18.398 18.402zm0 0" fill="#8eafe2"/><path d="M453.45 0C485.733 0 512 26.266 512 58.55v30.24h-36.8V58.55c0-11.991-9.759-21.75-21.75-21.75-10.16 0-18.4-8.237-18.4-18.398C435.05 8.238 443.29 0 453.45 0zm0 0" fill="#6a96d7"/><path d="M71.762 343.848c-11.75 0-23.203-4.848-31.426-13.301-8.313-8.543-12.715-19.824-12.387-31.762l.836-30.262-18.46-23.992a43.826 43.826 0 01-6.95-40.285 43.826 43.826 0 0129.305-28.508l29.035-8.562 17.11-24.965a43.835 43.835 0 0136.167-19.059 43.837 43.837 0 0136.172 19.059l17.11 24.965 29.035 8.562a43.82 43.82 0 0129.3 28.508 43.815 43.815 0 01-6.949 40.285l-18.457 23.992.832 30.258c.328 11.938-4.07 23.219-12.383 31.762-8.222 8.453-19.68 13.3-31.43 13.3-5.007 0-9.956-.855-14.71-2.546l-28.52-10.14-28.52 10.144a43.928 43.928 0 01-14.706 2.547h-.004zm0 0" fill="#b49cdc"/><path d="M197.922 318.613c-92.27-27.101-123.383-129.367-114.649-181.867a43.725 43.725 0 00-4.449 5.465l-17.11 24.965-29.034 8.558a43.842 43.842 0 00-29.305 28.508 43.832 43.832 0 006.95 40.29l18.46 23.991-.836 30.262c-.328 11.938 4.07 23.219 12.387 31.762 8.223 8.453 19.676 13.3 31.426 13.3h.004a43.928 43.928 0 0014.707-2.546l28.52-10.145 28.519 10.14a43.755 43.755 0 0014.71 2.548c11.75 0 23.204-4.848 31.43-13.301a43.845 43.845 0 008.27-11.93zm0 0" fill="#908cd6"/><path d="M110.574 300.18L76.2 312.406c-8.726 3.102-17.847-3.523-17.594-12.781l1.004-36.473a13.2 13.2 0 00-2.73-8.402l-22.25-28.918c-5.649-7.34-2.164-18.062 6.719-20.68l35-10.32a13.183 13.183 0 007.144-5.191l20.63-30.098c5.233-7.637 16.507-7.637 21.745 0l20.625 30.098a13.178 13.178 0 007.149 5.191l34.996 10.32c8.883 2.618 12.367 13.34 6.718 20.68l-22.25 28.918a13.174 13.174 0 00-2.726 8.402l1 36.473c.258 9.258-8.867 15.883-17.594 12.781L119.41 300.18a13.193 13.193 0 00-8.836 0zm0 0" fill="#f7ef87"/><path d="M90.59 179.285l-7.098 10.356a13.183 13.183 0 01-7.144 5.191l-29.836 8.797L155.82 312.938c8.051 1.507 15.797-4.774 15.563-13.313l-1.004-36.473a13.223 13.223 0 01.422-3.66zm0 0" fill="#efd176"/><path d="M353.773 343.848c-11.746 0-23.199-4.848-31.421-13.301-8.317-8.543-12.715-19.824-12.387-31.762l.836-30.262-18.461-23.992a43.826 43.826 0 01-6.95-40.285 43.826 43.826 0 0129.305-28.508l29.035-8.562 17.11-24.965c8.18-11.934 21.7-19.059 36.168-19.059s27.992 7.125 36.172 19.059l17.11 24.965 29.034 8.562a43.82 43.82 0 0129.301 28.508 43.815 43.815 0 01-6.95 40.285l-18.46 23.992.836 30.258c.328 11.938-4.07 23.219-12.383 31.762-8.227 8.453-19.68 13.3-31.43 13.3-5.011 0-9.96-.855-14.71-2.546l-28.52-10.14-28.52 10.144a43.928 43.928 0 01-14.707 2.547h-.008zm0 0" fill="#b49cdc"/><path d="M479.934 318.613c-92.266-27.101-123.383-129.367-114.645-181.867a43.725 43.725 0 00-4.45 5.465l-17.112 24.965-29.032 8.558a43.834 43.834 0 00-29.304 28.508 43.82 43.82 0 006.949 40.29l18.457 23.991-.832 30.258c-.328 11.942 4.07 23.223 12.383 31.766 8.226 8.453 19.68 13.297 31.425 13.297h.008a43.75 43.75 0 0014.707-2.547l28.52-10.14 28.515 10.14a43.778 43.778 0 0014.715 2.547c11.746 0 23.203-4.848 31.426-13.301a43.759 43.759 0 008.27-11.93zm0 0" fill="#908cd6"/><path d="M392.59 300.18l-34.375 12.226c-8.73 3.102-17.852-3.523-17.594-12.781l1-36.473c.086-3.03-.879-6-2.726-8.402l-22.25-28.918c-5.649-7.34-2.165-18.062 6.718-20.68l34.996-10.32a13.178 13.178 0 007.149-5.191l20.625-30.098c5.238-7.637 16.512-7.637 21.746 0l20.629 30.098a13.183 13.183 0 007.144 5.191l35 10.32c8.883 2.618 12.368 13.34 6.72 20.68l-22.25 28.918a13.2 13.2 0 00-2.731 8.402l1.004 36.473c.253 9.258-8.868 15.883-17.594 12.781l-34.38-12.226a13.182 13.182 0 00-8.831 0zm0 0" fill="#f7ef87"/><path d="M372.605 179.285l-7.097 10.356a13.183 13.183 0 01-7.145 5.191l-29.836 8.797 109.309 109.309c8.05 1.507 15.797-4.774 15.559-13.313l-1-36.473a13.223 13.223 0 01.421-3.66zm0 0" fill="#efd176"/></symbol></svg>