<svg aria-hidden="true" width="0" height="0" style="position:absolute"><symbol viewBox="0 0 340 340" id="9fb2ad67ceae1b6d275f65d4f69fc535" xmlns="http://www.w3.org/2000/svg"><path d="M340 76V65h-48v11h19v188h-19v11h48v-11h-18V76zM2 230l56-127c4-9 11-14 21-14h2c10 0 16 5 20 14l56 127c2 2 2 4 2 7 0 9-7 17-17 17-8 0-13-5-17-12l-10-26H44l-11 27c-3 7-9 11-17 11-9 0-16-8-16-17l2-7zm100-45l-23-53-22 53h45zm74 32v-1c0-26 20-39 50-39 12 0 21 2 30 5v-2c0-14-9-22-27-22-9 0-17 1-24 3l-5 1c-8 0-14-6-14-14 0-6 4-12 9-14 11-4 23-6 39-6 19 0 33 5 42 14s13 22 13 39v56c0 9-7 17-17 17s-16-7-16-15c-9 9-21 16-38 16-23 0-42-14-42-38zm80-8v-6c-6-3-14-5-22-5-15 0-24 6-24 17v1c0 9 8 15 19 15 16 0 27-9 27-22z"/></symbol></svg>