<svg height="512pt" viewBox="0 -84 512.001 512" width="512pt" xmlns="http://www.w3.org/2000/svg"><path d="m306.59375 212.582031c-2.417969 0-4.875-.480469-7.238281-1.492187-5.117188-2.191406-20.695313-8.867188-43.355469-8.867188s-38.238281 6.675782-43.355469 8.867188c-9.339843 4.003906-20.15625-.320313-24.160156-9.664063-4-9.339843.328125-20.15625 9.667969-24.160156 6.832031-2.925781 27.632812-11.839844 57.847656-11.839844s51.015625 8.914063 57.847656 11.839844c9.339844 4.003906 13.667969 14.820313 9.664063 24.160156-2.988281 6.976563-9.78125 11.15625-16.917969 11.15625zm0 0" fill="#8eafe2"/><path d="m323.515625 201.425781c4-9.339843-.328125-20.15625-9.664063-24.160156-3.992187-1.710937-12.75-5.457031-25.355468-8.28125-9.5 7.507813-16.753906 17.722656-20.605469 29.574219-.449219 1.386718-.835937 2.78125-1.183594 4.183594 16.835938 1.59375 28.382813 6.523437 32.648438 8.347656 2.363281 1.011718 4.820312 1.492187 7.238281 1.492187 7.136719 0 13.929688-4.179687 16.921875-11.15625zm0 0" fill="#6a96d7"/><path d="m188.484375 201.425781c-4-9.339843.328125-20.15625 9.667969-24.160156 3.988281-1.710937 12.746094-5.457031 25.355468-8.28125 9.496094 7.507813 16.75 17.722656 20.601563 29.574219.449219 1.386718.835937 2.78125 1.1875 4.183594-16.839844 1.59375-28.386719 6.523437-32.652344 8.347656-2.363281 1.011718-4.820312 1.492187-7.238281 1.492187-7.136719 0-13.929688-4.179687-16.921875-11.15625zm0 0" fill="#6a96d7"/><path d="m18.398438 229.523438c-10.160157 0-18.398438-8.238282-18.398438-18.402344v-152.570313c0-32.285156 26.265625-58.550781 58.550781-58.550781 10.160157 0 18.398438 8.238281 18.398438 18.398438 0 10.160156-8.238281 18.398437-18.398438 18.398437-11.992187 0-21.75 9.757813-21.75 21.753906v152.570313c0 10.164062-8.238281 18.402344-18.402343 18.402344zm0 0" fill="#8eafe2"/><path d="m58.550781 0c-32.285156 0-58.550781 26.265625-58.550781 58.550781v30.238281h36.800781v-30.238281c0-11.992187 9.757813-21.75 21.75-21.75 10.160157 0 18.398438-8.238281 18.398438-18.398437 0-10.164063-8.238281-18.402344-18.398438-18.402344zm0 0" fill="#6a96d7"/><path d="m493.601562 229.523438c-10.164062 0-18.398437-8.238282-18.398437-18.402344v-152.570313c0-11.992187-9.757813-21.75-21.753906-21.75-10.160157 0-18.398438-8.238281-18.398438-18.398437 0-10.164063 8.238281-18.402344 18.398438-18.402344 32.285156 0 58.550781 26.265625 58.550781 58.550781v152.570313c0 10.164062-8.238281 18.402344-18.398438 18.402344zm0 0" fill="#8eafe2"/><path d="m453.449219 0c32.285156 0 58.550781 26.265625 58.550781 58.550781v30.238281h-36.800781v-30.238281c0-11.992187-9.757813-21.75-21.75-21.75-10.160157 0-18.398438-8.238281-18.398438-18.398437 0-10.164063 8.238281-18.402344 18.398438-18.402344zm0 0" fill="#6a96d7"/><path d="m71.761719 343.847656c-11.75 0-23.203125-4.847656-31.425781-13.300781-8.3125-8.542969-12.714844-19.824219-12.386719-31.761719l.835937-30.261718-18.460937-23.992188c-8.820313-11.464844-11.421875-26.527344-6.949219-40.285156 4.472656-13.761719 15.425781-24.417969 29.304688-28.507813l29.035156-8.5625 17.109375-24.964843c8.179687-11.933594 21.703125-19.058594 36.167969-19.058594 14.46875 0 27.992187 7.125 36.171874 19.058594l17.109376 24.964843 29.035156 8.5625c13.875 4.089844 24.832031 14.746094 29.300781 28.507813 4.472656 13.757812 1.875 28.820312-6.949219 40.285156l-18.457031 23.992188.832031 30.257812c.328125 11.9375-4.070312 23.21875-12.382812 31.761719-8.222656 8.453125-19.679688 13.300781-31.429688 13.300781-5.007812 0-9.957031-.855469-14.710937-2.546875l-28.519531-10.140625-28.519532 10.144531c-4.75 1.6875-9.699218 2.542969-14.707031 2.546875-.003906 0-.003906 0-.003906 0zm0 0" fill="#b49cdc"/><path d="m197.921875 318.613281c-92.269531-27.101562-123.382813-129.367187-114.648437-181.867187-1.609376 1.691406-3.109376 3.503906-4.449219 5.464844l-17.109375 24.964843-29.035156 8.558594c-13.878907 4.09375-24.832032 14.75-29.304688 28.507813-4.472656 13.761718-1.871094 28.824218 6.949219 40.289062l18.460937 23.992188-.835937 30.261718c-.328125 11.9375 4.070312 23.21875 12.386719 31.761719 8.222656 8.453125 19.675781 13.300781 31.425781 13.300781h.003906c5.007813-.003906 9.957031-.859375 14.707031-2.546875l28.519532-10.144531 28.519531 10.140625c4.75 1.691406 9.703125 2.546875 14.710937 2.546875 11.75 0 23.203125-4.847656 31.429688-13.300781 3.457031-3.550781 6.222656-7.582031 8.269531-11.929688zm0 0" fill="#908cd6"/><path d="m110.574219 300.179688-34.375 12.226562c-8.726563 3.101562-17.847657-3.523438-17.59375-12.78125l1.003906-36.472656c.082031-3.03125-.882813-6-2.730469-8.402344l-22.25-28.917969c-5.648437-7.339843-2.164062-18.0625 6.71875-20.679687l35-10.320313c2.90625-.855469 5.429688-2.691406 7.144532-5.191406l20.628906-30.097656c5.234375-7.636719 16.507812-7.636719 21.746094 0l20.625 30.097656c1.714843 2.5 4.238281 4.335937 7.148437 5.191406l34.996094 10.320313c8.882812 2.617187 12.367187 13.339844 6.71875 20.679687l-22.25 28.917969c-1.847657 2.402344-2.8125 5.371094-2.726563 8.402344l1 36.472656c.257813 9.257812-8.867187 15.882812-17.59375 12.78125l-34.375-12.226562c-2.859375-1.015626-5.976562-1.015626-8.835937 0zm0 0" fill="#f7ef87"/><path d="m90.589844 179.285156-7.097656 10.355469c-1.714844 2.5-4.238282 4.335937-7.144532 5.191406l-29.835937 8.796875 109.308593 109.308594c8.050782 1.507812 15.796876-4.773438 15.5625-13.3125l-1.003906-36.472656c-.035156-1.242188.117188-2.472656.421875-3.660156zm0 0" fill="#efd176"/><path d="m353.773438 343.847656c-11.746094 0-23.199219-4.847656-31.421876-13.300781-8.316406-8.542969-12.714843-19.824219-12.386718-31.761719l.835937-30.261718-18.460937-23.992188c-8.820313-11.464844-11.421875-26.527344-6.949219-40.285156 4.472656-13.761719 15.425781-24.417969 29.304687-28.507813l29.035157-8.5625 17.109375-24.964843c8.179687-11.933594 21.699218-19.058594 36.167968-19.058594s27.992188 7.125 36.171876 19.058594l17.109374 24.964843 29.035157 8.5625c13.875 4.089844 24.832031 14.746094 29.300781 28.507813 4.472656 13.757812 1.875 28.820312-6.949219 40.285156l-18.460937 23.992188.835937 30.257812c.328125 11.9375-4.070312 23.21875-12.382812 31.761719-8.226563 8.453125-19.679688 13.300781-31.429688 13.300781-5.011719 0-9.960937-.855469-14.710937-2.546875l-28.519532-10.140625-28.519531 10.144531c-4.75 1.6875-9.699219 2.542969-14.707031 2.546875-.003906 0-.003906 0-.007812 0zm0 0" fill="#b49cdc"/><path d="m479.933594 318.613281c-92.265625-27.101562-123.382813-129.367187-114.644532-181.867187-1.609374 1.691406-3.109374 3.503906-4.449218 5.464844l-17.113282 24.964843-29.03125 8.558594c-13.878906 4.09375-24.835937 14.75-29.304687 28.507813-4.472656 13.761718-1.875 28.824218 6.949219 40.289062l18.457031 23.992188-.832031 30.257812c-.328125 11.941406 4.070312 23.222656 12.382812 31.765625 8.226563 8.453125 19.679688 13.296875 31.425782 13.296875h.007812c5.007812 0 9.953125-.855469 14.707031-2.546875l28.519531-10.140625 28.515626 10.140625c4.753906 1.691406 9.703124 2.546875 14.714843 2.546875 11.746094 0 23.203125-4.847656 31.425781-13.300781 3.457032-3.550781 6.226563-7.582031 8.269532-11.929688zm0 0" fill="#908cd6"/><path d="m392.589844 300.179688-34.375 12.226562c-8.730469 3.101562-17.851563-3.523438-17.59375-12.78125l1-36.472656c.085937-3.03125-.878906-6-2.726563-8.402344l-22.25-28.917969c-5.648437-7.339843-2.164062-18.0625 6.71875-20.679687l34.996094-10.320313c2.910156-.855469 5.433594-2.691406 7.148437-5.191406l20.625-30.097656c5.238282-7.636719 16.511719-7.636719 21.746094 0l20.628906 30.097656c1.714844 2.5 4.238282 4.335937 7.144532 5.191406l35 10.320313c8.882812 2.617187 12.367187 13.339844 6.71875 20.679687l-22.25 28.917969c-1.847656 2.402344-2.8125 5.371094-2.730469 8.402344l1.003906 36.472656c.253907 9.257812-8.867187 15.882812-17.59375 12.78125l-34.378906-12.226562c-2.855469-1.015626-5.972656-1.015626-8.832031 0zm0 0" fill="#f7ef87"/><path d="m372.605469 179.285156-7.097657 10.355469c-1.714843 2.5-4.238281 4.335937-7.144531 5.191406l-29.835937 8.796875 109.308594 109.308594c8.050781 1.507812 15.796874-4.773438 15.558593-13.3125l-1-36.472656c-.035156-1.242188.117188-2.472656.421875-3.660156zm0 0" fill="#efd176"/></svg>