<svg xmlns="http://www.w3.org/2000/svg" viewBox="0 0 512 512"><path d="M509 194c-7-23-28-39-52-39H354c-6 0-12-3-14-9l-32-98c-7-24-28-38-52-38s-45 14-52 38l-32 98c-2 6-8 9-14 9H55c-24 0-45 16-52 39-8 23 0 47 20 62l83 60c5 4 7 11 5 17l-32 97c-7 23 1 47 21 62a55 55 0 0064 0l83-60c5-4 13-4 18 0l83 60c19 14 45 14 64 0 20-15 28-39 21-62l-22-67a20 20 0 00-38 13l21 66c4 10-3 16-5 17-2 2-10 6-18 0l-83-60a55 55 0 00-64 0l-83 60c-8 6-16 2-18 0-2-1-9-7-5-17l31-97c8-23-1-47-20-61l-83-61c-8-6-6-14-5-17 1-2 4-11 14-11h103c24 0 45-15 52-37l32-98c3-10 11-10 14-10s11 0 14 10l32 98c7 22 28 37 52 37h103c10 0 13 9 14 11 1 3 3 11-5 17l-57 41a20 20 0 0024 33l56-41c20-15 28-39 20-62z"/></svg>