<svg xmlns="http://www.w3.org/2000/svg" viewBox="0 0 512 512"><path d="M491 405h-57c-9-30-38-53-71-53s-62 23-72 53H21a21 21 0 000 43h270c10 31 38 53 72 53s62-22 71-53h57a21 21 0 100-43zm-128 54a32 32 0 110-64 32 32 0 010 64zM491 64h-57c-9-31-38-53-71-53s-62 22-72 53H21a21 21 0 000 43h270c10 30 38 53 72 53s62-23 71-53h57a21 21 0 100-43zm-128 53a32 32 0 110-64 32 32 0 010 64zM491 235H221c-10-31-38-54-72-54s-62 23-71 54H21a21 21 0 000 42h57c9 31 38 54 71 54s62-23 72-54h270a21 21 0 100-42zm-342 53a32 32 0 110-64 32 32 0 010 64z"/></svg>